<svg viewBox="0 0 300 300" xmlns="http://www.w3.org/2000/svg">

<!-- lines -->
<line x1="150" y1="40" x2="90" y2="100" stroke="black"></line>
<line x1="150" y1="40" x2="210" y2="100" stroke="black"></line>

<line x1="90" y1="100" x2="150" y2="160" stroke="black"></line>
<line x1="210" y1="100" x2="150" y2="160" stroke="black"></line>

<line x1="150" y1="160" x2="50" y2="160" stroke="black"></line>
<line x1="150" y1="160" x2="250" y2="160" stroke="black"></line>

<line x1="150" y1="160" x2="90" y2="220" stroke="black"></line>
<line x1="150" y1="160" x2="210" y2="220" stroke="black"></line>

<line x1="90" y1="220" x2="150" y2="270" stroke="black"></line>
<line x1="210" y1="220" x2="150" y2="270" stroke="black"></line>

<!-- nodes -->
<g font-size="16" text-anchor="middle" dominant-baseline="middle">

<circle cx="150" cy="40" r="14" fill="white" stroke="black"></circle>
<text x="150" y="40">2</text>

<circle cx="90" cy="100" r="14" fill="white" stroke="black"></circle>
<text x="90" y="100">1</text>

<circle cx="210" cy="100" r="14" fill="white" stroke="black"></circle>
<text x="210" y="100">3</text>

<circle cx="50" cy="160" r="14" fill="white" stroke="black"></circle>
<text x="50" y="160">4</text>

<circle cx="150" cy="160" r="14" fill="white" stroke="black"></circle>
<text x="150" y="160">5</text>

<circle cx="250" cy="160" r="14" fill="white" stroke="black"></circle>
<text x="250" y="160">6</text>

<circle cx="90" cy="220" r="14" fill="white" stroke="black"></circle>
<text x="90" y="220">7</text>

<circle cx="210" cy="220" r="14" fill="white" stroke="black"></circle>
<text x="210" y="220">9</text>

<circle cx="150" cy="270" r="14" fill="white" stroke="black"></circle>
<text x="150" y="270">8</text>

</g>
</svg>